<svg width="128" height="128" viewBox="0 0 128 128" fill="none" xmlns="http://www.w3.org/2000/svg">
  <rect width="128" height="128" fill="#0B1320"/>
  <rect x="10" y="10" width="108" height="108" stroke="#43597B" stroke-width="2"/>
  <path d="M20 28H48L58 44L68 28H96V102H80V56L60 84H56L36 56V102H20V28Z" fill="#F5F7FA"/>
  <path d="M76 18H112" stroke="#FF1801" stroke-width="6" stroke-linecap="square"/>
  <path d="M79 89C79 74.0883 91.0883 62 106 62C120.912 62 133 74.0883 133 89C133 103.912 120.912 116 106 116C91.0883 116 79 103.912 79 89Z" fill="#FF1801"/>
  <path d="M101 73C92.7157 73 86 79.7157 86 88C86 96.2843 92.7157 103 101 103C104.537 103 107.788 101.776 110.353 99.7332L117.5 106.88L122.88 101.5L115.783 94.4027C116.918 92.4436 117.567 90.1684 117.567 87.7417C117.567 79.6006 110.966 73 102.825 73H101Z" fill="#0B1320"/>
  <path d="M94 28H107V102H94V28Z" fill="#FF1801"/>
</svg>
